# xmcd
#
# Track frame offsets:
#	150
#	23033
#	44917
#	64485
#	85601
#	107548
#	125388
#	144576
#	161605
#	184841
#	210661
#	233966
#	251754
#	274206
#	299664
#	318964
#
# Disc length: 4565 seconds
#
# Revision: 1
# Processed by: cddbd v1.5.2PL0 Copyright (c) Steve Scherf et al.
# Submitted via: audiograbber 1.83.01
#
DISCID=f411d310
DTITLE=En Vogue - Platinum Collection
DYEAR=2007
DGENRE=R&B
TTITLE0=Hold On
TTITLE1=Don't Let Go (Love)
TTITLE2=Whatever
TTITLE3=My Lovin' (You're Never Gonna Get It)
TTITLE4=Free Your Mind
TTITLE5=Giving Him Something He Can Feel
TTITLE6=Lies
TTITLE7=You Don't Have To Worry
TTITLE8=Waitin' On You
TTITLE9=Don't Go
TTITLE10=Give It Up, Turn It Loose
TTITLE11=Love Don't Love You
TTITLE12=Runaway Love
TTITLE13=Let It Flow
TTITLE14=No Fool No More
TTITLE15=Riddle
EXTD=
EXTT0=
EXTT1=
EXTT2=
EXTT3=
EXTT4=
EXTT5=
EXTT6=
EXTT7=
EXTT8=
EXTT9=
EXTT10=
EXTT11=
EXTT12=
EXTT13=
EXTT14=
EXTT15=
PLAYORDER=
